Coordinates
version=1
nRows=10
nColumns=40
inDegrees=yes

Units are S.I. units (second, meters, Newtons, ...)
Angles are in degrees.

endheader
time	pelvis_tilt	pelvis_list	pelvis_rotation	pelvis_tx	pelvis_ty	pelvis_tz	hip_flexion_r	hip_adduction_r	hip_rotation_r	knee_angle_r	knee_angle_r_beta	ankle_angle_r	subtalar_angle_r	mtp_angle_r	hip_flexion_l	hip_adduction_l	hip_rotation_l	knee_angle_l	knee_angle_l_beta	ankle_angle_l	subtalar_angle_l	mtp_angle_l	lumbar_extension	lumbar_bending	lumbar_rotation	arm_flex_r	arm_add_r	arm_rot_r	elbow_flex_r	pro_sup_r	wrist_flex_r	wrist_dev_r	arm_flex_l	arm_add_l	arm_rot_l	elbow_flex_l	pro_sup_l	wrist_flex_l	wrist_dev_l
     23.76000000	     -3.73064246	     -4.77555165	     -0.37536886	      0.79832242	      0.92669387	      0.40630855	     17.00136409	      0.69482167	    -13.62645014	     17.86626222	     17.86626222	      6.10586899	     -1.86118867	     -4.81029111	     11.99961385	    -13.53090925	     -8.42166405	     39.04530821	     39.04530821	     13.54998668	    -17.98288365	      2.83817395	    -11.28471403	      7.41273666	      2.57140066	      9.84208969	    -18.83428321	     -4.10141564	     48.40058084	     45.19447241	      0.00000000	      0.00000000	      5.88040798	    -27.56776610	    -18.90113414	     65.09963904	     47.42218852	      0.00000000	      0.00000000
     23.77285714	     -3.72237866	     -4.92604973	     -0.05812692	      0.79793499	      0.92723885	      0.40905644	     16.36910001	      1.07544099	    -13.85214005	     17.33430374	     17.33430374	      6.31366628	     -1.83344172	     -4.78556845	     13.60283635	    -14.17630315	     -7.62627448	     42.04150299	     42.04150299	     12.30033559	    -18.42901305	      3.08403374	    -11.32022293	      7.53232552	      2.58515684	     10.69592884	    -18.91476260	     -3.82683008	     48.40171133	     45.19072783	      0.00000000	      0.00000000	      5.40854923	    -26.98531614	    -18.66953739	     64.59989922	     47.39568167	      0.00000000	      0.00000000
     23.78571429	     -3.69879932	     -5.07629106	      0.22353886	      0.79741532	      0.92774397	      0.41174524	     15.74868543	      1.46012417	    -14.05795487	     16.82015957	     16.82015957	      6.46439182	     -1.80956468	     -4.78070220	     15.24924193	    -14.78862314	     -6.83913456	     45.06218768	     45.06218768	     11.02803787	    -18.78312854	      3.66247190	    -11.37120908	      7.63271151	      2.60404735	     11.55463150	    -19.00312470	     -3.54941837	     48.44483178	     45.18522858	      0.00000000	      0.00000000	      4.95568559	    -26.39525439	    -18.41558020	     64.05516383	     47.36684221	      0.00000000	      0.00000000
     23.79857143	     -3.71963411	     -5.22946778	      0.50720902	      0.79677906	      0.92808926	      0.41435366	     15.18810533	      1.85837797	    -14.21670644	     16.31174759	     16.31174759	      6.64593968	     -1.82724886	     -4.82141289	     16.99388082	    -15.34391869	     -5.99772842	     48.04405067	     48.04405067	      9.82295306	    -19.02618411	      4.68276226	    -11.42204247	      7.72966608	      2.64409408	     12.41611449	    -19.07713629	     -3.23487873	     48.53385581	     45.17658403	      0.00000000	      0.00000000	      4.46870376	    -25.80025943	    -18.14952823	     63.40648156	     47.33538134	      0.00000000	      0.00000000
     23.81142857	     -3.69505094	     -5.37447673	      0.75121130	      0.79600476	      0.92838377	      0.41686179	     14.65987003	      2.22922183	    -14.32705260	     15.92580210	     15.92580210	      6.79542601	     -1.86078170	     -4.87160792	     18.68920975	    -15.83537542	     -5.18464414	     50.91677015	     50.91677015	      8.65697452	    -19.21109184	      5.88610719	    -11.51412248	      7.79084844	      2.70809815	     13.31904278	    -19.17819097	     -2.98640460	     48.73634599	     45.16632635	      0.00000000	      0.00000000	      4.05139046	    -25.16835063	    -17.87955510	     62.79299898	     47.30398776	      0.00000000	      0.00000000
     23.82428571	     -3.78874355	     -5.35713788	      1.01385866	      0.79502810	      0.92857299	      0.41905100	     14.27148243	      2.42114179	    -14.32902606	     15.51287939	     15.51287939	      6.67067965	     -2.20450045	     -5.60352441	     20.82320366	    -15.73718903	     -3.78638078	     54.19610101	     54.19610101	     10.35181662	    -19.24216978	     15.35184015	    -11.43330370	      7.70316646	      2.37590670	     14.41805888	    -19.56734358	     -0.36603897	     48.67054543	     45.10785372	      0.00000000	      0.00000000	      3.56097462	    -24.63802369	    -17.84210510	     61.03605059	     47.30349075	      0.00000000	      0.00000000
     23.83714286	     -3.73734289	     -5.46747338	      1.24380622	      0.79408003	      0.92873168	      0.42134014	     13.83792507	      2.71595351	    -14.44959993	     15.34968907	     15.34968907	      6.89129505	     -2.26666334	     -5.62151066	     22.35796551	    -16.05824979	     -3.08395894	     56.51320888	     56.51320888	      9.04317170	    -19.36531789	     15.73279067	    -11.60181778	      7.71625780	      2.53382330	     15.17890306	    -19.63472559	     -0.37482714	     49.01581268	     45.10288018	      0.00000000	      0.00000000	      3.10652066	    -23.90834989	    -17.61479514	     60.61049899	     47.27656714	      0.00000000	      0.00000000
     23.85000000	     -3.81429530	     -5.58643967	      1.52392627	      0.79302671	      0.92864061	      0.42351268	     13.55538667	      3.04367408	    -14.37057660	     15.18051152	     15.18051152	      7.11347778	     -2.74433595	     -5.58426667	     24.10251101	    -16.18726837	     -2.15406275	     58.71808459	     58.71808459	      8.82013568	    -19.43156713	     18.57668234	    -11.60538607	      7.72233461	      2.36784847	     15.89381890	    -19.61552427	      0.15151839	     49.94669615	     45.06875574	      0.00000000	      0.00000000	      2.72421883	    -23.30139316	    -17.62831711	     58.76848668	     47.25827851	      0.00000000	      0.00000000
     23.86285714	     -3.81142699	     -5.69245374	      1.77854351	      0.79191751	      0.92860099	      0.42551348	     13.24664543	      3.29096825	    -14.54328973	     15.14076218	     15.14076218	      7.37997278	     -2.81064885	     -5.63725213	     25.55477372	    -16.31132341	     -1.47689235	     60.37930361	     60.37930361	      8.02897652	    -19.48435153	     18.94209441	    -11.73260498	      7.69503380	      2.55382882	     16.59415670	    -19.68043894	      0.16690446	     50.36774327	     45.06012602	      0.00000000	      0.00000000	      2.27624956	    -22.53563688	    -17.42270320	     58.26070803	     47.23150658	      0.00000000	      0.00000000
     23.87571429	     -3.66540598	     -5.53699331	      1.96781923	      0.79085970	      0.92891130	      0.42740989	     12.77084073	      3.27377190	    -14.51421135	     15.10205288	     15.10205288	      7.69194720	     -2.86714655	     -5.69075498	     26.59194778	    -16.13408169	     -1.11801379	     61.49129084	     61.49129084	      7.45975510	    -19.52121972	     19.05391177	    -12.09890271	      7.28937576	      2.87720508	     17.06014957	    -19.64397256	      0.17420002	     50.61260663	     45.05433460	      0.00000000	      0.00000000	      1.79829554	    -21.95472416	    -17.27595632	     57.89152290	     47.21003507	      0.00000000	      0.00000000
